{"title":"Pirates of the Caribbean-3 At World's End (2007) MULTI VHQ 1080p","uid":15897016,"size":25077590992,"categoryP":"video","categoryS":"hd___movies","magnet":"?xt=urn:btih:40ba78e346c3f4b13f372789fbeed578dc538d4a&amp;dn=Pirates+of+the+Caribbean-3+At+World%27s+End+%282007%29+MULTI+VHQ+1080p&amp;tr=udp%3A%2F%2Ftracker.leechers-paradise.org%3A6969&amp;tr=udp%3A%2F%2Fzer0day.ch%3A1337&amp;tr=udp%3A%2F%2Fopen.demonii.com%3A1337&amp;tr=udp%3A%2F%2Ftracker.coppersurfer.tk%3A6969&amp;tr=udp%3A%2F%2Fexodus.desync.com%3A6969","seeders":2,"leechers":22,"uploader":"SaM","files":3,"time":1474821622,"description":"HQ 1080p Blu-ray Rip x264\r\n\r\nEnglish LPCM 5.1 Audio\r\n\r\nHindi DDS 5.1 Audio\r\n\r\nEnglish &amp; French Subtitle\r\n \nhttps://extraimago.com/image/w9AY \nhttps://extraimago.com/image/w9AC \nhttps://extraimago.com/image/w9AB \nhttps://extraimago.com/image/w9A4 \nhttps://extraimago.com/image/w9Ae \nhttps://extraimago.com/image/w9AZ \nhttps://extraimago.com/image/w9AK \nhttps://extraimago.com/image/w9AJ \nhttps://extraimago.com/image/w9A0 \nhttps://extraimago.com/image/w9Az \nhttps://extraimago.com/image/w9AU\r\n\r\n\r\nSpecs:\r\nSource: French BD50 @ DDR\r\n\r\nFile size : 23.2 GiB\r\nDuration : 2 h 48 min\r\nOverall bit rate : 19.7 Mb/s\r\n\r\nVideo\r\nID : 1\r\nFormat : AVC\r\nFormat/Info : Advanced Video Codec\r\nFormat profile :   \r\nFormat settings, CABAC : Yes\r\nFormat settings, ReFrames : 5 frames\r\nCodec ID : V_MPEG4/ISO/AVC\r\nDuration : 2 h 48 min\r\nBit rate : 12.6 Mb/s\r\nWidth : 1 920 pixels\r\nHeight : 800 pixels\r\nDisplay aspect ratio : 2.40:1\r\nFrame rate mode : Constant\r\nFrame rate : 23.976 (24000/1001) FPS\r\nColor space : YUV\r\nChroma subsampling : 4:2:0\r\nBit depth : 8 bits\r\nScan type : Progressive\r\nBits/(Pixel*Frame) : 0.341\r\nStream size : 14.8 GiB (64%)\r\nLanguage : English\r\nDefault : Yes\r\nForced : No\r\nColor range : Limited\r\nColor primaries : BT.709\r\nTransfer characteristics : BT.709\r\nMatrix coefficients : BT.709\r\n\r\nAudio #1\r\nID : 2\r\nFormat : PCM\r\nCodec ID : A_PCM/INT/LIT\r\nDuration : 2 h 48 min\r\nBit rate mode : Constant\r\nBit rate : 6 912 kb/s\r\nChannel(s) : 6 channels\r\nSampling rate : 48.0 kHz\r\nFrame rate : 32.000 FPS (1500 spf)\r\nBit depth : 24 bits\r\nStream size : 8.14 GiB (35%)\r\nLanguage : English\r\nDefault : Yes\r\nForced : No\r\n\r\nAudio #2\r\nID : 6\r\nFormat : AC-3\r\nFormat/Info : Audio Coding 3\r\nMode extension : CM (complete main)\r\nFormat settings, Endianness : Big\r\nCodec ID : A_AC3\r\nDuration : 2 h 48 min\r\nBit rate mode : Constant\r\nBit rate : 224 kb/s\r\nChannel(s) : 6 channels\r\nChannel positions : Front: L C R, Side: L R, LFE\r\nSampling rate : 48.0 kHz\r\nFrame rate : 31.250 FPS (1536 spf)\r\nCompression mode : Lossy\r\nStream size : 270 MiB (1%)\r\nLanguage : Hindi\r\nDefault : No\r\nForced : No\r\n\r\nSAMPLE Included","torrent":{"xt":"urn:btih:40ba78e346c3f4b13f372789fbeed578dc538d4a","amp;dn":"Pirates+of+the+Caribbean-3+At+World%27s+End+%282007%29+MULTI+VHQ+1080p","amp;tr":["udp%3A%2F%2Ftracker.leechers-paradise.org%3A6969","udp%3A%2F%2Fzer0day.ch%3A1337","udp%3A%2F%2Fopen.demonii.com%3A1337","udp%3A%2F%2Ftracker.coppersurfer.tk%3A6969","udp%3A%2F%2Fexodus.desync.com%3A6969"],"infoHash":"40ba78e346c3f4b13f372789fbeed578dc538d4a","infoHashBuffer":{"type":"Buffer","data":[64,186,120,227,70,195,244,177,63,55,39,137,251,238,213,120,220,83,141,74]},"announce":[],"urlList":[]}}